# xmcd CD database file
#
# Track frame offsets:
#	150
#	4296
#	75117
#	149000
#	212133
#	281890
#
# Disc length: 3793 seconds
#
# Revision: 0
# Processed by: cddbd v1.5.2PL0 Copyright (c) Steve Scherf et al.
# Submitted via: CDex 1.51
#
DISCID=530ecf06
DTITLE=Hans Salomon und James Carter Quintet - ORF: On Stage
DYEAR=2008
DGENRE=Jazz
TTITLE0=Intro
TTITLE1=Chant In The Night
TTITLE2=Song Of Delilah
TTITLE3=Shadow Sands
TTITLE4=Dodo's Bounce
TTITLE5=Finish
EXTD=YEAR: 2008
EXTT0=
EXTT1=
EXTT2=
EXTT3=
EXTT4=
EXTT5=
PLAYORDER=
